<svg width="164" height="32" viewBox="0 0 164 32" fill="none" xmlns="http://www.w3.org/2000/svg">
    <path fill-rule="evenodd" clip-rule="evenodd" d="M17.2516 5.55874C21.9449 7.14591 27.0299 7.14591 31.7232 5.55874C32.8336 5.18203 34.0231 4.97769 35.2601 4.97769C41.3393 4.97769 46.2748 9.91324 46.2748 15.9925C46.2748 22.0716 41.3393 27.0072 35.2601 27.0072C34.0231 27.0072 32.8336 26.8028 31.7232 26.4261C27.0299 24.8389 21.9449 24.8389 17.2516 26.4261C16.1413 26.8028 14.9517 27.0072 13.7148 27.0072C7.63554 27.0072 2.7 22.0716 2.7 15.9925C2.7 9.91324 7.63554 4.97769 13.7148 4.97769C14.9517 4.97769 16.1413 5.18203 17.2516 5.55874Z" fill="#070707" />
    <path d="M16.7802 23.6996C21.0368 23.6996 24.4874 20.249 24.4874 15.9924C24.4874 11.7359 21.0368 8.28525 16.7802 8.28525C12.5236 8.28525 9.07301 11.7359 9.07301 15.9924C9.07301 20.249 12.5236 23.6996 16.7802 23.6996Z" fill="white" />
    <path d="M16.7802 19.3939C18.6588 19.3939 20.1817 17.871 20.1817 15.9924C20.1817 14.1139 18.6588 12.591 16.7802 12.591C14.9016 12.591 13.3787 14.1139 13.3787 15.9924C13.3787 17.871 14.9016 19.3939 16.7802 19.3939Z" fill="#070707" />
    <path d="M32.1946 23.6996C36.4512 23.6996 39.9018 20.249 39.9018 15.9924C39.9018 11.7359 36.4512 8.28525 32.1946 8.28525C27.938 8.28525 24.4874 11.7359 24.4874 15.9924C24.4874 20.249 27.938 23.6996 32.1946 23.6996Z" fill="white" />
    <path d="M32.1946 19.3939C34.0732 19.3939 35.5961 17.871 35.5961 15.9924C35.5961 14.1139 34.0732 12.591 32.1946 12.591C30.316 12.591 28.7931 14.1139 28.7931 15.9924C28.7931 17.871 30.316 19.3939 32.1946 19.3939Z" fill="#070707" />
    <path fill-rule="evenodd" clip-rule="evenodd" d="M9.07318 15.9426C9.09996 11.7118 12.5431 8.28525 16.7802 8.28525C21.0339 8.28525 24.4874 11.7387 24.4874 15.9924H9.07301L9.07318 15.9426Z" fill="white" />
    <path fill-rule="evenodd" clip-rule="evenodd" d="M24.4876 15.9426C24.5144 11.7118 27.9575 8.28525 32.1946 8.28525C36.4483 8.28525 39.9018 11.7387 39.9018 15.9924H24.4874L24.4876 15.9426Z" fill="white" />
    <path fill-rule="evenodd" clip-rule="evenodd" d="M131.661 10.2314C131.661 10.2314 131.661 10.2313 131.66 10.2313C130.387 9.20042 128.766 8.58255 127.002 8.58255C122.912 8.58255 119.592 11.9028 119.592 15.9925C119.592 20.0821 122.912 23.4024 127.002 23.4024C128.766 23.4024 130.387 22.7844 131.66 21.7536C131.661 21.7536 131.661 21.7535 131.661 21.7534C132.625 20.9721 134.005 20.9721 134.969 21.7534C134.97 21.7535 134.97 21.7535 134.97 21.7536C136.243 22.7844 137.864 23.4024 139.628 23.4024C143.718 23.4024 147.038 20.0821 147.038 15.9925C147.038 11.9028 143.718 8.58255 139.628 8.58255C137.864 8.58255 136.243 9.20042 134.97 10.2312C134.97 10.2313 134.97 10.2314 134.969 10.2314C134.005 11.0128 132.625 11.0128 131.661 10.2314ZM130.486 11.681C132.136 13.0169 134.495 13.0169 136.144 11.681C137.096 10.91 138.308 10.448 139.628 10.448C142.688 10.448 145.173 12.9324 145.173 15.9925C145.173 19.0525 142.688 21.5369 139.628 21.5369C138.308 21.5369 137.096 21.0748 136.144 20.3038C134.495 18.968 132.136 18.968 130.486 20.3039C129.534 21.0748 128.322 21.5369 127.002 21.5369C123.942 21.5369 121.458 19.0525 121.458 15.9925C121.458 12.9324 123.942 10.448 127.002 10.448C128.322 10.448 129.534 10.91 130.487 11.6811L130.486 11.681Z" fill="white" />
    <path d="M53.89 23.055V8.96848H55.9031V23.055H53.89ZM55.4923 16.7836V15.0855L61.9217 15.0662V16.7643L55.4923 16.7836ZM55.4923 10.6666V8.96848H62.2709V10.6666H55.4923Z" fill="white" />
    <path d="M72.0281 23.4024C70.686 23.4024 69.5288 23.1772 68.5566 22.7269C67.5843 22.2767 66.7831 21.6849 66.1532 20.9517C65.5233 20.2184 65.0543 19.4337 64.7462 18.5975C64.438 17.7613 64.284 16.9573 64.284 16.1854V15.7609C64.284 14.9247 64.4414 14.0821 64.7564 13.233C65.0714 12.384 65.5507 11.6089 66.1943 10.9078C66.8379 10.2067 67.6425 9.64385 68.6079 9.21931C69.5733 8.79482 70.7134 8.58255 72.0281 8.58255C73.3427 8.58255 74.4827 8.79482 75.4482 9.21931C76.4137 9.64385 77.2182 10.2067 77.8618 10.9078C78.5054 11.6089 78.9847 12.384 79.2997 13.233C79.6147 14.0821 79.7722 14.9247 79.7722 15.7609V16.1854C79.7722 16.9573 79.6181 17.7613 79.31 18.5975C79.0018 19.4337 78.5328 20.2184 77.9029 20.9517C77.2729 21.6849 76.4719 22.2767 75.4996 22.7269C74.5272 23.1772 73.3701 23.4024 72.0281 23.4024ZM72.0281 21.6656C72.9045 21.6656 73.6953 21.5113 74.4006 21.2025C75.1058 20.8938 75.7049 20.4725 76.1979 19.9386C76.6909 19.4047 77.0676 18.8001 77.3277 18.1247C77.5879 17.4493 77.718 16.7386 77.718 15.9925C77.718 15.2077 77.5879 14.4744 77.3277 13.7926C77.0676 13.1108 76.6909 12.5094 76.1979 11.9884C75.7049 11.4674 75.1058 11.0589 74.4006 10.7631C73.6953 10.4672 72.9045 10.3192 72.0281 10.3192C71.1516 10.3192 70.3608 10.4672 69.6555 10.7631C68.9503 11.0589 68.3511 11.4674 67.8581 11.9884C67.3652 12.5094 66.9886 13.1108 66.7284 13.7926C66.4682 14.4744 66.3381 15.2077 66.3381 15.9925C66.3381 16.7386 66.4682 17.4493 66.7284 18.1247C66.9886 18.8001 67.3652 19.4047 67.8581 19.9386C68.3511 20.4725 68.9503 20.8938 69.6555 21.2025C70.3608 21.5113 71.1516 21.6656 72.0281 21.6656Z" fill="white" />
    <path d="M83.0795 23.055V8.8913H85.0925V23.055H83.0795ZM92.3436 23.055L87.3726 16.7836H89.7349L94.7881 23.055H92.3436ZM84.3325 17.9607V16.2819H88.3586C88.9885 16.2819 89.5295 16.1597 89.9814 15.9152C90.4333 15.6708 90.7825 15.3331 91.029 14.9022C91.2755 14.4712 91.3987 13.9792 91.3987 13.426C91.3987 12.8728 91.2755 12.3807 91.029 11.9498C90.7825 11.5188 90.4333 11.1779 89.9814 10.9271C89.5295 10.6762 88.9885 10.5508 88.3586 10.5508H84.3325V8.8913H87.9888C89.0844 8.8913 90.043 9.04565 90.8647 9.3544C91.6863 9.66315 92.3231 10.1391 92.775 10.7824C93.2269 11.4256 93.4529 12.2553 93.4529 13.2716V13.5804C93.4529 14.5967 93.2235 15.4264 92.7647 16.0696C92.306 16.7128 91.6692 17.1888 90.8544 17.4976C90.0396 17.8063 89.0844 17.9607 87.9888 17.9607H84.3325Z" fill="white" />
    <path d="M97.4583 23.055V8.96848H99.4713V23.055H97.4583ZM99.0605 23.055V21.3569H106.332V23.055H99.0605ZM99.0605 16.745V15.0469H105.695V16.745H99.0605ZM99.0605 10.6666V8.96848H106.127V10.6666H99.0605Z" fill="white" />
    <path d="M109.783 23.0357V8.94916H111.796V23.0357H109.783ZM111.386 23.0357V21.3376H118.246V23.0357H111.386Z" fill="white" />
    <path d="M160.165 23.055L154.064 16.4749H151.866L158.83 8.96848H161.131L154.804 15.7609L154.619 14.4294L162.671 23.055H160.165ZM150.716 23.055V8.96848H152.729V23.055H150.716Z" fill="white" />
    <path fill-rule="evenodd" clip-rule="evenodd" d="M17.6684 4.33017C16.4272 3.90904 15.0975 3.68033 13.7147 3.68033C6.91952 3.68033 1.40263 9.19721 1.40263 15.9924C1.40263 22.7877 6.91952 28.3045 13.7147 28.3045C15.0975 28.3045 16.4272 28.0758 17.6684 27.6547C22.091 26.1591 26.8839 26.1591 31.3076 27.6551C32.5475 28.0758 33.8773 28.3045 35.2601 28.3045C42.0553 28.3045 47.5722 22.7877 47.5722 15.9924C47.5722 9.19721 42.0553 3.68033 35.2601 3.68033C33.8773 3.68033 32.5475 3.90904 31.3064 4.33017C26.8839 5.82576 22.091 5.82576 17.6672 4.32975L17.6684 4.33017ZM16.8347 6.78729C16.8352 6.78746 16.8355 6.78758 16.836 6.78771C21.7989 8.46605 27.1759 8.46605 32.1388 6.78771C32.1392 6.78758 32.1397 6.78746 32.1401 6.78729C33.1195 6.455 34.1689 6.27504 35.2601 6.27504C40.6233 6.27504 44.9775 10.6292 44.9775 15.9924C44.9775 21.3556 40.6233 25.7098 35.2601 25.7098C34.1689 25.7098 33.1195 25.5299 32.1401 25.1975C32.1397 25.1974 32.1392 25.1973 32.1388 25.1971C27.1759 23.5188 21.7989 23.5188 16.836 25.1971C16.8355 25.1973 16.8352 25.1974 16.8347 25.1975C15.8553 25.5299 14.8059 25.7098 13.7147 25.7098C8.35155 25.7098 3.99734 21.3556 3.99734 15.9924C3.99734 10.6292 8.35155 6.27504 13.7147 6.27504C14.8059 6.27504 15.8553 6.455 16.8347 6.78729Z" fill="white" />
    <path fill-rule="evenodd" clip-rule="evenodd" d="M8.64059 15.9899L9.07302 16.4249H24.4874C24.7262 16.4249 24.9199 16.2313 24.9199 15.9924C24.9199 11.5 21.2726 7.85278 16.7802 7.85278C12.3053 7.85278 8.66903 11.4717 8.64076 15.9399L9.07302 16.3749L8.64072 15.9426L8.64059 15.9899ZM9.51823 15.56C9.74229 11.7458 12.9104 8.71767 16.7802 8.71767C20.6501 8.71767 23.8183 11.7459 24.0423 15.56H9.51823Z" fill="#070707" />
    <path fill-rule="evenodd" clip-rule="evenodd" d="M24.055 15.9899L24.4874 16.4249H39.9018C40.1407 16.4249 40.3343 16.2313 40.3343 15.9924C40.3343 11.5 36.687 7.85278 32.1946 7.85278C27.7197 7.85278 24.0834 11.4717 24.0551 15.9399L24.4874 16.3749L24.0551 15.9426L24.055 15.9899ZM24.9326 15.56C25.1567 11.7458 28.3248 8.71767 32.1946 8.71767C36.0645 8.71767 39.2326 11.7459 39.4567 15.56H24.9326Z" fill="#070707" />
    <path fill-rule="evenodd" clip-rule="evenodd" d="M32.1946 7.85278C27.7022 7.85278 24.055 11.5 24.055 15.9924C24.055 20.4848 27.7022 24.1321 32.1946 24.1321C36.687 24.1321 40.3343 20.4848 40.3343 15.9924C40.3343 11.5 36.687 7.85278 32.1946 7.85278ZM32.1946 8.71767C36.2097 8.71767 39.4694 11.9774 39.4694 15.9924C39.4694 20.0075 36.2097 23.2672 32.1946 23.2672C28.1796 23.2672 24.9199 20.0075 24.9199 15.9924C24.9199 11.9774 28.1796 8.71767 32.1946 8.71767Z" fill="#070707" />
    <path fill-rule="evenodd" clip-rule="evenodd" d="M16.7802 7.85278C12.2878 7.85278 8.64055 11.5 8.64055 15.9924C8.64055 20.4848 12.2878 24.1321 16.7802 24.1321C21.2726 24.1321 24.9199 20.4848 24.9199 15.9924C24.9199 11.5 21.2726 7.85278 16.7802 7.85278ZM16.7802 8.71767C20.7953 8.71767 24.055 11.9774 24.055 15.9924C24.055 20.0075 20.7953 23.2672 16.7802 23.2672C12.7652 23.2672 9.50548 20.0075 9.50548 15.9924C9.50548 11.9774 12.7652 8.71767 16.7802 8.71767Z" fill="#070707" />
</svg>
