<svg width="48" height="32" viewBox="0 0 48 32" fill="none" xmlns="http://www.w3.org/2000/svg">
    <path fill-rule="evenodd" clip-rule="evenodd" d="M17.2516 5.55874C21.9449 7.14591 27.0299 7.14591 31.7232 5.55874C32.8336 5.18203 34.0231 4.97769 35.2601 4.97769C41.3393 4.97769 46.2748 9.91324 46.2748 15.9925C46.2748 22.0716 41.3393 27.0072 35.2601 27.0072C34.0231 27.0072 32.8336 26.8028 31.7232 26.4261C27.0299 24.8389 21.9449 24.8389 17.2516 26.4261C16.1413 26.8028 14.9517 27.0072 13.7148 27.0072C7.63554 27.0072 2.7 22.0716 2.7 15.9925C2.7 9.91324 7.63554 4.97769 13.7148 4.97769C14.9517 4.97769 16.1413 5.18203 17.2516 5.55874Z" fill="#070707" />
    <path d="M16.7802 23.6996C21.0368 23.6996 24.4874 20.249 24.4874 15.9924C24.4874 11.7359 21.0368 8.28525 16.7802 8.28525C12.5236 8.28525 9.07301 11.7359 9.07301 15.9924C9.07301 20.249 12.5236 23.6996 16.7802 23.6996Z" fill="white" />
    <path d="M16.7802 19.3939C18.6588 19.3939 20.1817 17.871 20.1817 15.9924C20.1817 14.1139 18.6588 12.591 16.7802 12.591C14.9016 12.591 13.3787 14.1139 13.3787 15.9924C13.3787 17.871 14.9016 19.3939 16.7802 19.3939Z" fill="#070707" />
    <path d="M32.1946 23.6996C36.4512 23.6996 39.9018 20.249 39.9018 15.9924C39.9018 11.7359 36.4512 8.28525 32.1946 8.28525C27.938 8.28525 24.4874 11.7359 24.4874 15.9924C24.4874 20.249 27.938 23.6996 32.1946 23.6996Z" fill="white" />
    <path d="M32.1946 19.3939C34.0732 19.3939 35.5961 17.871 35.5961 15.9924C35.5961 14.1139 34.0732 12.591 32.1946 12.591C30.316 12.591 28.7931 14.1139 28.7931 15.9924C28.7931 17.871 30.316 19.3939 32.1946 19.3939Z" fill="#070707" />
    <path fill-rule="evenodd" clip-rule="evenodd" d="M9.07318 15.9426C9.09996 11.7118 12.5431 8.28525 16.7802 8.28525C21.0339 8.28525 24.4874 11.7387 24.4874 15.9924H9.07301L9.07318 15.9426Z" fill="white" />
    <path fill-rule="evenodd" clip-rule="evenodd" d="M24.4876 15.9426C24.5144 11.7118 27.9575 8.28525 32.1946 8.28525C36.4483 8.28525 39.9018 11.7387 39.9018 15.9924H24.4874L24.4876 15.9426Z" fill="white" />
    <path fill-rule="evenodd" clip-rule="evenodd" d="M17.6684 4.33017C16.4272 3.90904 15.0975 3.68033 13.7147 3.68033C6.91952 3.68033 1.40263 9.19721 1.40263 15.9924C1.40263 22.7877 6.91952 28.3045 13.7147 28.3045C15.0975 28.3045 16.4272 28.0758 17.6684 27.6547C22.091 26.1591 26.8839 26.1591 31.3076 27.6551C32.5475 28.0758 33.8773 28.3045 35.2601 28.3045C42.0553 28.3045 47.5722 22.7877 47.5722 15.9924C47.5722 9.19721 42.0553 3.68033 35.2601 3.68033C33.8773 3.68033 32.5475 3.90904 31.3064 4.33017C26.8839 5.82576 22.091 5.82576 17.6672 4.32975L17.6684 4.33017ZM16.8347 6.78729C16.8352 6.78746 16.8355 6.78758 16.836 6.78771C21.7989 8.46605 27.1759 8.46605 32.1388 6.78771C32.1392 6.78758 32.1397 6.78746 32.1401 6.78729C33.1195 6.455 34.1689 6.27504 35.2601 6.27504C40.6233 6.27504 44.9775 10.6292 44.9775 15.9924C44.9775 21.3556 40.6233 25.7098 35.2601 25.7098C34.1689 25.7098 33.1195 25.5299 32.1401 25.1975C32.1397 25.1974 32.1392 25.1973 32.1388 25.1971C27.1759 23.5188 21.7989 23.5188 16.836 25.1971C16.8355 25.1973 16.8352 25.1974 16.8347 25.1975C15.8553 25.5299 14.8059 25.7098 13.7147 25.7098C8.35155 25.7098 3.99734 21.3556 3.99734 15.9924C3.99734 10.6292 8.35155 6.27504 13.7147 6.27504C14.8059 6.27504 15.8553 6.455 16.8347 6.78729Z" fill="white" />
    <path fill-rule="evenodd" clip-rule="evenodd" d="M8.64059 15.9899L9.07302 16.4249H24.4874C24.7262 16.4249 24.9199 16.2313 24.9199 15.9924C24.9199 11.5 21.2726 7.85278 16.7802 7.85278C12.3053 7.85278 8.66903 11.4717 8.64076 15.9399L9.07302 16.3749L8.64072 15.9426L8.64059 15.9899ZM9.51823 15.56C9.74229 11.7458 12.9104 8.71767 16.7802 8.71767C20.6501 8.71767 23.8183 11.7459 24.0423 15.56H9.51823Z" fill="#070707" />
    <path fill-rule="evenodd" clip-rule="evenodd" d="M24.055 15.9899L24.4874 16.4249H39.9018C40.1407 16.4249 40.3343 16.2313 40.3343 15.9924C40.3343 11.5 36.687 7.85278 32.1946 7.85278C27.7197 7.85278 24.0834 11.4717 24.0551 15.9399L24.4874 16.3749L24.0551 15.9426L24.055 15.9899ZM24.9326 15.56C25.1567 11.7458 28.3248 8.71767 32.1946 8.71767C36.0645 8.71767 39.2326 11.7459 39.4567 15.56H24.9326Z" fill="#070707" />
    <path fill-rule="evenodd" clip-rule="evenodd" d="M32.1946 7.85278C27.7022 7.85278 24.055 11.5 24.055 15.9924C24.055 20.4848 27.7022 24.1321 32.1946 24.1321C36.687 24.1321 40.3343 20.4848 40.3343 15.9924C40.3343 11.5 36.687 7.85278 32.1946 7.85278ZM32.1946 8.71767C36.2097 8.71767 39.4694 11.9774 39.4694 15.9924C39.4694 20.0075 36.2097 23.2672 32.1946 23.2672C28.1796 23.2672 24.9199 20.0075 24.9199 15.9924C24.9199 11.9774 28.1796 8.71767 32.1946 8.71767Z" fill="#070707" />
    <path fill-rule="evenodd" clip-rule="evenodd" d="M16.7802 7.85278C12.2878 7.85278 8.64055 11.5 8.64055 15.9924C8.64055 20.4848 12.2878 24.1321 16.7802 24.1321C21.2726 24.1321 24.9199 20.4848 24.9199 15.9924C24.9199 11.5 21.2726 7.85278 16.7802 7.85278ZM16.7802 8.71767C20.7953 8.71767 24.055 11.9774 24.055 15.9924C24.055 20.0075 20.7953 23.2672 16.7802 23.2672C12.7652 23.2672 9.50548 20.0075 9.50548 15.9924C9.50548 11.9774 12.7652 8.71767 16.7802 8.71767Z" fill="#070707" />
</svg>